<?xml version="1.0" encoding="UTF-8" standalone="no"?>
<svg width="12px" height="11px" viewBox="0 0 12 11" version="1.1" xmlns="http://www.w3.org/2000/svg" xmlns:xlink="http://www.w3.org/1999/xlink" xmlns:sketch="http://www.bohemiancoding.com/sketch/ns">
    <!-- Generator: Sketch 3.2 (9961) - http://www.bohemiancoding.com/sketch -->
    <title>Shape</title>
    <desc>Created with Sketch.</desc>
    <defs></defs>
    <g id="Comps" stroke="none" stroke-width="1" fill="none" fill-rule="evenodd" sketch:type="MSPage">
        <g id="Home" sketch:type="MSArtboardGroup" transform="translate(-739.000000, -203.000000)" fill="#000000" opacity="0.25">
            <g id="Featured" sketch:type="MSLayerGroup" transform="translate(127.000000, 115.000000)">
                <path d="M615.436086,91.0529512 C615.801104,91.0529512 616.096871,90.749729 616.096871,90.3755112 L616.096871,88.67744 C616.096871,88.3032222 615.801104,88 615.436086,88 C615.071067,88 614.7753,88.3032222 614.7753,88.67744 L614.7753,90.3755112 C614.7753,90.749729 615.071067,91.0529512 615.436086,91.0529512 Z M620.590214,91.0529512 C620.955364,91.0529512 621.250999,90.749729 621.250999,90.3755112 L621.250999,88.67744 C621.250999,88.3032222 620.955364,88 620.590214,88 C620.225196,88 619.929428,88.3032222 619.929428,88.67744 L619.929428,90.3755112 C619.929428,90.749729 620.225592,91.0529512 620.590214,91.0529512 Z M623.471371,88.948416 L622.253411,88.948416 C621.961476,88.948416 621.724783,89.191075 621.724783,89.490368 C621.724783,89.789661 621.961476,90.03232 622.253411,90.03232 L622.942743,90.03232 L622.942743,92.2331872 L613.057257,92.2331872 L613.057257,90.03232 L613.746589,90.03232 C614.038524,90.03232 614.275217,89.789661 614.275217,89.490368 C614.275217,89.191075 614.038524,88.948416 613.746589,88.948416 L612.528629,88.948416 C612.236693,88.948416 612,89.191075 612,89.490368 L612,98.458048 C612,98.757341 612.236693,99 612.528629,99 L623.471371,99 C623.763307,99 624,98.757341 624,98.458048 L624,89.490368 C624,89.191075 623.763307,88.948416 623.471371,88.948416 Z M613.057257,97.916096 L613.057257,93.0462507 L622.942743,93.0462507 L622.942743,97.916367 L613.057257,97.916367 L613.057257,97.916096 Z M617.154128,90.03232 L618.798559,90.03232 C619.090495,90.03232 619.327188,89.789661 619.327188,89.490368 C619.327188,89.191075 619.090495,88.948416 618.798559,88.948416 L617.154128,88.948416 C616.862193,88.948416 616.6255,89.191075 616.6255,89.490368 C616.6255,89.789661 616.862193,90.03232 617.154128,90.03232 Z" id="Shape" sketch:type="MSShapeGroup"></path>
            </g>
        </g>
    </g>
</svg>