<?xml version="1.0" encoding="UTF-8" standalone="no"?>
<svg width="13px" height="13px" viewBox="0 0 13 13" version="1.1" xmlns="http://www.w3.org/2000/svg" xmlns:xlink="http://www.w3.org/1999/xlink" xmlns:sketch="http://www.bohemiancoding.com/sketch/ns">
    <!-- Generator: Sketch 3.1.1 (8761) - http://www.bohemiancoding.com/sketch -->
    <title>Fill 21</title>
    <desc>Created with Sketch.</desc>
    <defs></defs>
    <g id="Comps" stroke="none" stroke-width="1" fill="none" fill-rule="evenodd" sketch:type="MSPage">
        <g id="Post---Portrait" sketch:type="MSArtboardGroup" transform="translate(-664.000000, -637.000000)" fill="#FFFFFF">
            <path d="M675.875047,645.128045 L672.125516,645.128045 C671.918541,645.128045 671.750562,645.310743 671.750562,645.534041 C671.750562,645.757339 671.946663,645.915678 672.106768,646.086196 L673.148763,647.214866 C672.366235,647.933479 671.356862,648.371955 670.25,648.371955 C668.021279,648.371955 666.175759,646.613991 665.818054,644.311993 L664.302493,644.311993 C664.672572,647.515303 667.191132,649.99594 670.25,649.99594 C671.77156,649.99594 673.157387,649.378826 674.214004,648.367895 L675.28862,649.533104 C675.490345,649.752342 675.668073,650 675.875047,650 C676.082021,650 676.25,649.817302 676.25,649.594004 L676.25,645.534041 C676.25,645.485322 676.25,645.128045 675.875047,645.128045 L675.875047,645.128045 Z M664.624953,641.871955 L668.374484,641.871955 C668.581459,641.871955 668.749438,641.689257 668.749438,641.465959 C668.749438,641.242661 668.553337,641.084322 668.393232,640.913804 L667.351237,639.785134 C668.133765,639.066521 669.143138,638.628045 670.25,638.628045 C672.478721,638.628045 674.324241,640.386009 674.681946,642.688007 L676.197507,642.688007 C675.827428,639.484697 673.308868,637.00406 670.25,637.00406 C668.728815,637.00406 667.342613,637.621174 666.285996,638.632105 L665.211755,637.466896 C665.009655,637.247658 664.831927,637 664.624953,637 C664.417979,637 664.25,637.182698 664.25,637.405996 L664.25,641.465959 C664.25,641.514678 664.25,641.871955 664.624953,641.871955 L664.624953,641.871955 Z" id="Fill-21" sketch:type="MSShapeGroup"></path>
        </g>
    </g>
</svg>