<?xml version="1.0" encoding="UTF-8" standalone="no"?>
<svg width="324px" height="198px" viewBox="0 0 324 198" version="1.1" xmlns="http://www.w3.org/2000/svg" xmlns:xlink="http://www.w3.org/1999/xlink" xmlns:sketch="http://www.bohemiancoding.com/sketch/ns">
    <!-- Generator: Sketch 3.1.1 (8761) - http://www.bohemiancoding.com/sketch -->
    <title>Logo 3</title>
    <desc>Created with Sketch.</desc>
    <defs>
        <filter x="-50%" y="-50%" width="200%" height="200%" filterUnits="objectBoundingBox" id="filter-1">
            <feOffset dx="0" dy="1" in="SourceAlpha" result="shadowOffsetOuter1"></feOffset>
            <feGaussianBlur stdDeviation="0" in="shadowOffsetOuter1" result="shadowBlurOuter1"></feGaussianBlur>
            <feColorMatrix values="0 0 0 0 0   0 0 0 0 0   0 0 0 0 0  0 0 0 0.07 0" in="shadowBlurOuter1" type="matrix" result="shadowMatrixOuter1"></feColorMatrix>
            <feMerge>
                <feMergeNode in="shadowMatrixOuter1"></feMergeNode>
                <feMergeNode in="SourceGraphic"></feMergeNode>
            </feMerge>
        </filter>
    </defs>
    <g id="Comps" stroke="none" stroke-width="1" fill="none" fill-rule="evenodd" sketch:type="MSPage">
        <g id="Home" sketch:type="MSArtboardGroup" transform="translate(-79.000000, -2.000000)" filter="url(#filter-1)" fill="#4B989E">
            <g id="Header" sketch:type="MSLayerGroup" transform="translate(128.000000, -106.000000)">
                <path d="M14.8785571,255.350018 L14.1281953,255.350018 C8.12530041,264.062185 -0.785246642,268.371428 -12.6972411,268.371428 C-23.8588737,268.371428 -32.5818303,264.530581 -38.7723156,256.942565 C-44.962801,249.260869 -48.0580436,238.48776 -48.0580436,224.435878 C-48.0580436,210.383997 -44.962801,199.517208 -38.7723156,191.741834 C-32.5818303,183.966459 -23.8588737,180.125611 -12.7910364,180.125611 C-1.2542228,180.125611 7.65632425,184.341176 13.8468096,192.678626 L14.8785571,192.678626 L14.3157857,186.589477 L14.0344,180.594007 L14.0344,145.83902 L26.9781421,145.83902 L26.9781421,266.872561 L16.4730761,266.872561 L14.8785571,255.350018 L14.8785571,255.350018 Z M-10.9151317,257.598319 C-2.09837989,257.598319 4.27969589,255.256339 8.31289087,250.478699 C12.3460859,245.701059 14.3157857,238.019364 14.3157857,227.246255 L14.3157857,224.529558 C14.3157857,212.444939 12.3460859,203.826452 8.21909564,198.674095 C4.27969589,193.521739 -2.19217512,190.9924 -11.1027222,190.9924 C-18.700136,190.9924 -24.5154404,193.896455 -28.4548401,199.798246 C-32.3942399,205.700036 -34.5515302,213.943807 -34.5515302,224.716916 C-34.5515302,235.583704 -32.5818303,243.827475 -28.5486353,249.448228 C-24.5154404,254.787943 -18.700136,257.598319 -10.9151317,257.598319 L-10.9151317,257.598319 Z M53.8973737,266.872561 L40.9536316,266.872561 L40.9536316,181.624479 L53.8973737,181.624479 L53.8973737,266.872561 L53.8973737,266.872561 Z M139.15724,181.5308 L139.15724,189.77457 L123.399641,191.648154 C124.806569,193.521739 126.119702,195.863719 127.33904,198.767774 C128.464583,201.67183 129.027355,204.950602 129.027355,208.697771 C129.027355,217.035221 126.119702,223.686445 120.491988,228.651443 C114.770479,233.616441 106.985475,236.14578 96.9493852,236.14578 C94.416914,236.14578 91.9782379,235.864742 89.8209476,235.490025 C84.2870289,238.394081 81.5669672,242.04757 81.5669672,246.450493 C81.5669672,248.792473 82.5049195,250.478699 84.4746193,251.60285 C86.350524,252.727 89.6333571,253.289075 94.3231187,253.289075 L109.517946,253.289075 C118.803674,253.289075 125.838317,255.16266 130.809464,259.097186 C135.780611,263.031713 138.219287,268.652466 138.219287,276.053124 C138.219287,285.421045 134.373683,292.728023 126.776269,297.599342 C119.178855,302.564341 108.111018,305 93.5727569,305 C82.4111242,305 73.7819629,302.939057 67.779068,298.817172 C61.6823779,294.695287 58.6809305,288.793496 58.6809305,281.20548 C58.6809305,276.053124 60.3692447,271.556522 63.6520778,267.715674 C67.0287062,263.874826 71.6246725,261.345488 77.7213626,260.033979 C75.5640723,259.097186 73.7819629,257.50464 72.1874439,255.443697 C70.6867202,253.382755 69.9363584,250.947095 69.9363584,248.230398 C69.9363584,245.138984 70.6867202,242.422287 72.3750344,239.986627 C74.0633486,237.644647 76.6896151,235.396346 80.2538339,233.241724 C75.845458,231.36814 72.2812392,228.276726 69.4673822,223.967482 C66.6535252,219.564559 65.340392,214.69324 65.340392,208.978808 C65.340392,199.704567 68.154249,192.397588 73.6881677,187.43259 C79.3158816,182.373912 87.2884763,179.844574 97.5121566,179.844574 C102.014328,179.844574 105.953728,180.406649 109.517946,181.43712 L139.15724,181.5308 L139.15724,181.5308 Z M71.1556964,281.111801 C71.1556964,285.702082 73.031601,289.261893 76.9710008,291.603873 C80.9104005,293.945853 86.4443192,295.163683 93.7603473,295.163683 C104.640594,295.163683 112.613189,293.571136 117.865722,290.292364 C123.118255,287.013591 125.650726,282.610669 125.650726,277.083595 C125.650726,272.493314 124.243798,269.308221 121.336146,267.434636 C118.428493,265.654731 113.082165,264.717939 105.203366,264.717939 L89.7271523,264.717939 C83.8180527,264.717939 79.3158816,266.123127 76.0330485,268.933504 C72.7502153,271.837559 71.1556964,275.865765 71.1556964,281.111801 L71.1556964,281.111801 Z M78.0965436,208.885129 C78.0965436,214.880599 79.7848577,219.377201 83.1614861,222.468615 C86.5381145,225.46635 91.2278761,227.058896 97.2307709,227.058896 C109.799332,227.058896 116.083613,220.969748 116.083613,208.79145 C116.083613,195.957398 109.705537,189.587212 96.9493852,189.587212 C90.8526951,189.587212 86.1629335,191.273438 82.8801004,194.55221 C79.7848577,197.643624 78.0965436,202.421264 78.0965436,208.885129 Z M161.668095,266.872561 L148.724353,266.872561 L148.724353,181.624479 L161.668095,181.624479 L161.668095,266.872561 Z M47.7068884,172.818633 C51.7992208,172.818633 55.1167117,169.505246 55.1167117,165.417975 C55.1167117,161.330705 51.7992208,158.017318 47.7068884,158.017318 C43.6145559,158.017318 40.297065,161.330705 40.297065,165.417975 C40.297065,169.505246 43.6145559,172.818633 47.7068884,172.818633 Z M155.571405,172.818633 C159.663738,172.818633 162.981229,169.505246 162.981229,165.417975 C162.981229,161.330705 159.663738,158.017318 155.571405,158.017318 C151.479073,158.017318 148.161582,161.330705 148.161582,165.417975 C148.161582,169.505246 151.479073,172.818633 155.571405,172.818633 Z M208.847097,257.691998 C204.626312,257.691998 200.124141,256.380489 197.77926,253.570113 C195.340584,250.759737 194.121246,246.918889 194.121246,241.766532 L194.121246,191.554475 L209.785049,191.554475 L209.785049,181.5308 L194.02745,181.5308 L194.02745,161.764486 L186.523832,161.764486 L181.083708,180.031932 L168.890328,185.371647 L168.890328,191.554475 L181.083708,191.554475 L181.083708,242.328608 C181.083708,259.659262 189.337689,268.371428 205.84565,268.371428 C207.064988,268.371428 207.440169,268.277749 208.753302,268.18407 C208.847097,257.691998 208.940892,257.691998 208.847097,257.691998 Z M271.242381,108.760773 L212.216442,108.760773 C210.102781,108.760773 208.380539,110.448682 208.380539,112.520206 L208.380539,170.369455 C208.380539,172.440979 210.102781,173.975442 212.138158,173.821996 L271.242381,169.065161 C273.356041,168.834992 275,167.07036 275,164.998835 L275,112.520206 C275,110.448682 273.277758,108.760773 271.242381,108.760773 Z M247.757259,125.332971 L254.176526,125.332971 L256.838173,125.332971 L263.257439,125.332971 L263.257439,129.476021 L256.838173,129.476021 L254.176526,129.476021 L247.757259,129.476021 L247.757259,125.332971 L247.757259,125.332971 Z M219.49683,125.332971 L225.211542,125.332971 L225.211542,119.808905 L229.673716,119.808905 L229.673716,125.332971 L235.388428,125.332971 L235.388428,129.552744 L229.673716,129.552744 L229.673716,135.07681 L225.211542,135.07681 L225.211542,129.552744 L219.49683,129.552744 L219.49683,125.332971 L219.49683,125.332971 Z M239.537467,161.239401 C232.178795,161.239401 225.36811,158.093752 220.671086,152.646409 L224.272138,149.73093 C228.029757,154.180872 233.666186,156.712736 239.537467,156.712736 C249.088083,156.712736 257.386159,150.037822 259.186685,140.831045 L263.805425,141.675 C261.613481,152.953302 251.436595,161.239401 239.537467,161.239401 L239.537467,161.239401 Z" id="Logo-3" sketch:type="MSShapeGroup"></path>
            </g>
        </g>
    </g>
</svg>