<?xml version="1.0" encoding="UTF-8" standalone="no"?>
<svg width="13px" height="11px" viewBox="0 0 13 11" version="1.1" xmlns="http://www.w3.org/2000/svg" xmlns:xlink="http://www.w3.org/1999/xlink" xmlns:sketch="http://www.bohemiancoding.com/sketch/ns">
    <!-- Generator: Sketch 3.2 (9961) - http://www.bohemiancoding.com/sketch -->
    <title>Heart 2</title>
    <desc>Created with Sketch.</desc>
    <defs></defs>
    <g id="Comps" stroke="none" stroke-width="1" fill="none" fill-rule="evenodd" sketch:type="MSPage">
        <g id="Home" sketch:type="MSArtboardGroup" transform="translate(-825.000000, -202.000000)" stroke="#000000">
            <g id="Featured" sketch:type="MSLayerGroup" transform="translate(127.000000, 115.000000)">
                <path d="M705.689955,88.3800504 C706.137621,88.1410454 706.580192,88.0149039 707.016939,88.0016259 C707.453323,87.9883478 707.884611,88.0563979 708.310439,88.205776 C708.736268,88.3551541 709.109687,88.5676029 709.429605,88.8431225 C709.749886,89.1186421 710.008295,89.4522532 710.204832,89.8439558 C710.401732,90.2356583 710.5,90.6439585 710.5,91.0688562 C710.5,91.4472807 710.377711,91.8373235 710.13386,92.2389846 C709.890009,92.6406457 709.548255,93.0539252 709.107504,93.4788229 C708.667117,93.9037206 708.206712,94.3269585 707.72629,94.7485367 C707.245868,95.1701149 706.699933,95.6763407 706.088487,96.267214 C705.47704,96.8584194 704.945664,97.4356827 704.494723,98 C704.043053,97.4356827 703.513861,96.8584194 702.906054,96.267214 C702.298247,95.6763407 701.753768,95.1701149 701.273346,94.7485367 C700.792924,94.3269585 700.332519,93.9037206 699.892496,93.4788229 C699.452109,93.0539252 699.109627,92.6406457 698.865776,92.2389846 C698.621561,91.8373235 698.5,91.4472807 698.5,91.0688562 C698.5,90.6439585 698.601908,90.2356583 698.805723,89.8439558 C699.009903,89.4522532 699.275227,89.1186421 699.602787,88.8431225 C699.930348,88.5676029 700.310682,88.3551541 700.74379,88.205776 C701.176898,88.0563979 701.610006,87.9883478 702.043114,88.0016259 C702.476222,88.0149039 702.912969,88.1427052 703.353356,88.3850297 C703.793743,88.6276861 704.174077,88.9742433 704.494723,89.4256971 C704.843757,88.9676043 705.242653,88.6190554 705.689955,88.3800504 Z" id="Heart-2" sketch:type="MSShapeGroup"></path>
            </g>
        </g>
    </g>
</svg>