<?xml version="1.0" encoding="UTF-8" standalone="no"?>
<svg width="14px" height="11px" viewBox="0 0 14 11" version="1.1" xmlns="http://www.w3.org/2000/svg" xmlns:xlink="http://www.w3.org/1999/xlink" xmlns:sketch="http://www.bohemiancoding.com/sketch/ns">
    <!-- Generator: Sketch 3.1.1 (8761) - http://www.bohemiancoding.com/sketch -->
    <title>Heart 3</title>
    <desc>Created with Sketch.</desc>
    <defs></defs>
    <g id="Comps" stroke="none" stroke-width="1" fill="none" fill-rule="evenodd" sketch:type="MSPage">
        <g id="Post---Portrait" sketch:type="MSArtboardGroup" transform="translate(-737.000000, -166.000000)" stroke="#90B5CA">
            <path d="M745.189955,167.38005 C745.637621,167.141045 746.080192,167.014904 746.516939,167.001626 C746.953323,166.988348 747.384611,167.056398 747.810439,167.205776 C748.236268,167.355154 748.609687,167.567603 748.929605,167.843123 C749.249886,168.118642 749.508295,168.452253 749.704832,168.843956 C749.901732,169.235658 750,169.643958 750,170.068856 C750,170.447281 749.877711,170.837324 749.63386,171.238985 C749.390009,171.640646 749.048255,172.053925 748.607504,172.478823 C748.167117,172.903721 747.706712,173.326959 747.22629,173.748537 C746.745868,174.170115 746.199933,174.676341 745.588487,175.267214 C744.97704,175.858419 744.445664,176.435683 743.994723,177 C743.543053,176.435683 743.013861,175.858419 742.406054,175.267214 C741.798247,174.676341 741.253768,174.170115 740.773346,173.748537 C740.292924,173.326959 739.832519,172.903721 739.392496,172.478823 C738.952109,172.053925 738.609627,171.640646 738.365776,171.238985 C738.121561,170.837324 738,170.447281 738,170.068856 C738,169.643958 738.101908,169.235658 738.305723,168.843956 C738.509903,168.452253 738.775227,168.118642 739.102787,167.843123 C739.430348,167.567603 739.810682,167.355154 740.24379,167.205776 C740.676898,167.056398 741.110006,166.988348 741.543114,167.001626 C741.976222,167.014904 742.412969,167.142705 742.853356,167.38503 C743.293743,167.627686 743.674077,167.974243 743.994723,168.425697 C744.343757,167.967604 744.742653,167.619055 745.189955,167.38005 Z" id="Heart-3" sketch:type="MSShapeGroup"></path>
        </g>
    </g>
</svg>