<?xml version="1.0" encoding="UTF-8" standalone="no"?>
<svg width="13px" height="11px" viewBox="0 0 13 11" version="1.1" xmlns="http://www.w3.org/2000/svg" xmlns:xlink="http://www.w3.org/1999/xlink" xmlns:sketch="http://www.bohemiancoding.com/sketch/ns">
    <!-- Generator: Sketch 3.1.1 (8761) - http://www.bohemiancoding.com/sketch -->
    <title>Shape 2</title>
    <desc>Created with Sketch.</desc>
    <defs></defs>
    <g id="Comps" stroke="none" stroke-width="1" fill="none" fill-rule="evenodd" sketch:type="MSPage">
        <g id="Post---Portrait" sketch:type="MSArtboardGroup" transform="translate(-651.000000, -166.000000)" fill="#90B5CA">
            <path d="M654.936086,169.052951 C655.301104,169.052951 655.596871,168.749729 655.596871,168.375511 L655.596871,166.67744 C655.596871,166.303222 655.301104,166 654.936086,166 C654.571067,166 654.2753,166.303222 654.2753,166.67744 L654.2753,168.375511 C654.2753,168.749729 654.571067,169.052951 654.936086,169.052951 Z M660.090214,169.052951 C660.455364,169.052951 660.750999,168.749729 660.750999,168.375511 L660.750999,166.67744 C660.750999,166.303222 660.455364,166 660.090214,166 C659.725196,166 659.429428,166.303222 659.429428,166.67744 L659.429428,168.375511 C659.429428,168.749729 659.725592,169.052951 660.090214,169.052951 Z M662.971371,166.948416 L661.753411,166.948416 C661.461476,166.948416 661.224783,167.191075 661.224783,167.490368 C661.224783,167.789661 661.461476,168.03232 661.753411,168.03232 L662.442743,168.03232 L662.442743,170.233187 L652.557257,170.233187 L652.557257,168.03232 L653.246589,168.03232 C653.538524,168.03232 653.775217,167.789661 653.775217,167.490368 C653.775217,167.191075 653.538524,166.948416 653.246589,166.948416 L652.028629,166.948416 C651.736693,166.948416 651.5,167.191075 651.5,167.490368 L651.5,176.458048 C651.5,176.757341 651.736693,177 652.028629,177 L662.971371,177 C663.263307,177 663.5,176.757341 663.5,176.458048 L663.5,167.490368 C663.5,167.191075 663.263307,166.948416 662.971371,166.948416 Z M652.557257,175.916096 L652.557257,171.046251 L662.442743,171.046251 L662.442743,175.916367 L652.557257,175.916367 L652.557257,175.916096 L652.557257,175.916096 Z M656.654128,168.03232 L658.298559,168.03232 C658.590495,168.03232 658.827188,167.789661 658.827188,167.490368 C658.827188,167.191075 658.590495,166.948416 658.298559,166.948416 L656.654128,166.948416 C656.362193,166.948416 656.1255,167.191075 656.1255,167.490368 C656.1255,167.789661 656.362193,168.03232 656.654128,168.03232 L656.654128,168.03232 Z" id="Shape-2" sketch:type="MSShapeGroup"></path>
        </g>
    </g>
</svg>