<?xml version="1.0" encoding="UTF-8" standalone="no"?>
<svg width="110px" height="67px" viewBox="0 0 110 67" version="1.1" xmlns="http://www.w3.org/2000/svg" xmlns:xlink="http://www.w3.org/1999/xlink" xmlns:sketch="http://www.bohemiancoding.com/sketch/ns">
    <!-- Generator: Sketch 3.1.1 (8761) - http://www.bohemiancoding.com/sketch -->
    <title>Logo 3</title>
    <desc>Created with Sketch.</desc>
    <defs>
        <filter x="-50%" y="-50%" width="200%" height="200%" filterUnits="objectBoundingBox" id="filter-1">
            <feOffset dx="0" dy="1" in="SourceAlpha" result="shadowOffsetOuter1"></feOffset>
            <feGaussianBlur stdDeviation="0" in="shadowOffsetOuter1" result="shadowBlurOuter1"></feGaussianBlur>
            <feColorMatrix values="0 0 0 0 0   0 0 0 0 0   0 0 0 0 0  0 0 0 0.07 0" in="shadowBlurOuter1" type="matrix" result="shadowMatrixOuter1"></feColorMatrix>
            <feMerge>
                <feMergeNode in="shadowMatrixOuter1"></feMergeNode>
                <feMergeNode in="SourceGraphic"></feMergeNode>
            </feMerge>
        </filter>
    </defs>
    <g id="Comps" stroke="none" stroke-width="1" fill="none" fill-rule="evenodd" sketch:type="MSPage">
        <g id="Home" sketch:type="MSArtboardGroup" transform="translate(-127.000000, -24.000000)" filter="url(#filter-1)" fill="#FFFFFF">
            <g id="Header" sketch:type="MSLayerGroup" transform="translate(128.000000, 12.000000)">
                <path d="M21.1062333,61.3037381 L20.8539022,61.3037381 C18.8352528,64.2334595 15.8388202,65.682569 11.8330628,65.682569 C8.07963664,65.682569 5.14628678,64.3909714 3.06455462,61.8392786 C0.982822454,59.2560833 -0.058043627,55.6333095 -0.058043627,50.9079524 C-0.058043627,46.1825952 0.982822454,42.528319 3.06455462,39.9136214 C5.14628678,37.2989238 8.07963664,36.0073262 11.8015214,36.0073262 C15.6811132,36.0073262 18.6775458,37.4249333 20.759278,40.2286452 L21.1062333,40.2286452 L20.916985,38.1809905 L20.8223608,36.1648381 L20.8223608,24.4774547 L25.1750735,24.4774547 L25.1750735,65.1785309 L21.6424371,65.1785309 L21.1062333,61.3037381 L21.1062333,61.3037381 Z M12.4323493,62.0597952 C15.3972406,62.0597952 17.5420556,61.2722357 18.8983356,59.6656143 C20.2546156,58.0589928 20.916985,55.4757976 20.916985,51.8530238 L20.916985,50.9394548 C20.916985,46.8756476 20.2546156,43.9774286 18.8667942,42.2447976 C17.5420556,40.5121667 15.3656992,39.6616024 12.3692665,39.6616024 C9.81441344,39.6616024 7.85884687,40.6381762 6.53410822,42.6228262 C5.20936957,44.6074762 4.48391745,47.3796857 4.48391745,51.0024595 C4.48391745,54.6567357 5.14628678,57.4289452 6.50256682,59.3190881 C7.85884687,61.1147238 9.81441344,62.0597952 12.4323493,62.0597952 L12.4323493,62.0597952 Z M34.2274542,65.1785309 L29.8747415,65.1785309 L29.8747415,36.5113643 L34.2274542,36.5113643 L34.2274542,65.1785309 L34.2274542,65.1785309 Z M62.8985836,36.4798619 L62.8985836,39.2520714 L57.599629,39.882119 C58.0727499,40.5121667 58.5143295,41.2997262 58.9243676,42.2763 C59.3028644,43.2528738 59.4921128,44.3554571 59.4921128,45.6155524 C59.4921128,48.4192643 58.5143295,50.6559333 56.6218457,52.3255595 C54.6978205,53.9951857 52.0798846,54.84575 48.7049552,54.84575 C47.8533375,54.84575 47.0332612,54.7512428 46.3078091,54.6252333 C44.4468667,55.6018071 43.5321662,56.8304 43.5321662,58.3110119 C43.5321662,59.0985714 43.8475801,59.6656143 44.5099495,60.0436428 C45.1407774,60.4216714 46.2447263,60.6106857 47.8217961,60.6106857 L52.9315023,60.6106857 C56.0541005,60.6106857 58.4197053,61.2407333 60.0913993,62.5638333 C61.7630933,63.8869333 62.5831696,65.7770762 62.5831696,68.2657643 C62.5831696,71.4160024 61.2899723,73.8731881 58.7351192,75.5113119 C56.1802661,77.1809381 52.4583814,78 47.5694649,78 C43.8160387,78 40.9142303,77.3069476 38.8955809,75.9208429 C36.8453901,74.5347381 35.8360655,72.5500881 35.8360655,69.9983952 C35.8360655,68.2657643 36.4038106,66.75365 37.5077595,65.4620524 C38.6432497,64.1704548 40.1887782,63.3198905 42.2389689,62.8788571 C41.5135168,62.5638333 40.9142303,62.0282929 40.3780265,61.3352405 C39.8733642,60.6421881 39.621033,59.8231262 39.621033,58.9095571 C39.621033,57.8699786 39.8733642,56.9564095 40.4411093,56.1373476 C41.0088545,55.3497881 41.8920136,54.5937309 43.0905866,53.8691762 C41.608141,53.2391286 40.4095679,52.19955 39.463326,50.7504405 C38.5170842,49.2698286 38.0755046,47.6317047 38.0755046,45.7100595 C38.0755046,42.5913238 39.0217465,40.1341381 40.8826889,38.4645119 C42.7751727,36.7633833 45.4561914,35.912819 48.8942036,35.912819 C50.4081906,35.912819 51.7329292,36.1018333 52.9315023,36.4483595 L62.8985836,36.4798619 L62.8985836,36.4798619 Z M40.0310712,69.9668929 C40.0310712,71.5105095 40.6618991,72.7076 41.9866378,73.4951595 C43.3113764,74.282719 45.1723188,74.69225 47.6325477,74.69225 C51.2913497,74.69225 53.9723684,74.1567095 55.7386866,73.0541262 C57.5050048,71.9515429 58.3566225,70.4709309 58.3566225,68.6122905 C58.3566225,67.0686738 57.8835015,65.9975929 56.9057182,65.3675452 C55.927935,64.769 54.1300754,64.4539762 51.4805981,64.4539762 L46.2762677,64.4539762 C44.2891597,64.4539762 42.7751727,64.9265119 41.6712238,65.8715833 C40.5672749,66.8481571 40.0310712,68.2027595 40.0310712,69.9668929 L40.0310712,69.9668929 Z M42.3651345,45.6785571 C42.3651345,47.6947095 42.9328796,49.2068238 44.0683699,50.2464024 C45.2038602,51.2544786 46.78093,51.790019 48.7995794,51.790019 C53.0261265,51.790019 55.1394001,49.7423643 55.1394001,45.6470547 C55.1394001,41.3312286 52.9945851,39.1890667 48.7049552,39.1890667 C46.6547644,39.1890667 45.0776946,39.7561095 43.9737457,40.8586928 C42.9328796,41.8982714 42.3651345,43.5048928 42.3651345,45.6785571 Z M70.4685187,65.1785309 L66.115806,65.1785309 L66.115806,36.5113643 L70.4685187,36.5113643 L70.4685187,65.1785309 Z M32.1457221,33.5501405 C33.5218888,33.5501405 34.6374924,32.4359168 34.6374924,31.0614524 C34.6374924,29.6869879 33.5218888,28.5727643 32.1457221,28.5727643 C30.7695553,28.5727643 29.6539518,29.6869879 29.6539518,31.0614524 C29.6539518,32.4359168 30.7695553,33.5501405 32.1457221,33.5501405 Z M68.4183279,33.5501405 C69.7944947,33.5501405 70.9100982,32.4359168 70.9100982,31.0614524 C70.9100982,29.6869879 69.7944947,28.5727643 68.4183279,28.5727643 C67.0421612,28.5727643 65.9265576,29.6869879 65.9265576,31.0614524 C65.9265576,32.4359168 67.0421612,33.5501405 68.4183279,33.5501405 Z M86.3338411,62.0912976 C84.9144782,62.0912976 83.4004912,61.6502643 82.6119563,60.7051928 C81.79188,59.7601214 81.3818418,58.4685238 81.3818418,56.7358928 L81.3818418,39.8506167 L86.649255,39.8506167 L86.649255,36.4798619 L81.3503004,36.4798619 L81.3503004,29.8328595 L78.8269887,29.8328595 L76.9975877,35.9758238 L72.8972062,37.7714595 L72.8972062,39.8506167 L76.9975877,39.8506167 L76.9975877,56.9249071 C76.9975877,62.7528476 79.7732306,65.682569 85.3245164,65.682569 C85.7345545,65.682569 85.8607201,65.6510667 86.3022997,65.6195643 C86.3338411,62.0912976 86.3653825,62.0912976 86.3338411,62.0912976 Z M107.316084,12.0088071 L87.466882,12.0088071 C86.7561016,12.0088071 86.1769472,12.576416 86.1769472,13.2730269 L86.1769472,32.7265324 C86.1769472,33.4231434 86.7561016,33.9391515 87.4405568,33.8875507 L107.316084,32.2879255 C108.026865,32.2105243 108.579694,31.617115 108.579694,30.9205041 L108.579694,13.2730269 C108.579694,12.576416 108.000539,12.0088071 107.316084,12.0088071 Z M99.4185237,17.5816946 L101.57719,17.5816946 L102.472247,17.5816946 L104.630914,17.5816946 L104.630914,18.9749165 L102.472247,18.9749165 L101.57719,18.9749165 L99.4185237,18.9749165 L99.4185237,17.5816946 L99.4185237,17.5816946 Z M89.9151258,17.5816946 L91.8368656,17.5816946 L91.8368656,15.7240654 L93.3374021,15.7240654 L93.3374021,17.5816946 L95.2591418,17.5816946 L95.2591418,19.0007169 L93.3374021,19.0007169 L93.3374021,20.858346 L91.8368656,20.858346 L91.8368656,19.0007169 L89.9151258,19.0007169 L89.9151258,17.5816946 L89.9151258,17.5816946 Z M96.6543775,29.6562842 C94.1798085,29.6562842 91.889516,28.5984676 90.3100038,26.7666388 L91.5209631,25.7862234 C92.7845728,27.2826469 94.6799874,28.1340603 96.6543775,28.1340603 C99.8660521,28.1340603 102.656524,25.8894251 103.262003,22.7933764 L104.81519,23.0771809 C104.078084,26.8698405 100.655808,29.6562842 96.6543775,29.6562842 L96.6543775,29.6562842 Z" id="Logo-3" sketch:type="MSShapeGroup"></path>
            </g>
        </g>
    </g>
</svg>